<?xml version="1.0" encoding="utf-8"?>
<!-- Generator: Adobe Illustrator 16.0.0, SVG Export Plug-In . SVG Version: 6.00 Build 0)  -->
<!DOCTYPE svg PUBLIC "-//W3C//DTD SVG 1.1//EN" "http://www.w3.org/Graphics/SVG/1.1/DTD/svg11.dtd">
<svg version="1.1" id="Layer_1" xmlns="http://www.w3.org/2000/svg" xmlns:xlink="http://www.w3.org/1999/xlink" x="0px" y="0px"
	 width="1000px" height="649.118px" viewBox="0 0 1000 649.118" enable-background="new 0 0 1000 649.118" xml:space="preserve">
<g>
	<path fill="#589441" d="M634.701,472.535c0,6.893,5.602,12.523,12.527,12.523c6.906,0,12.528-5.631,12.528-12.523
		c0-6.91-5.622-12.529-12.528-12.529C640.303,460.005,634.701,465.625,634.701,472.535"/>
	<path fill="#010101" d="M40.004,471.66l-18.972,6.549v24.77H0v16.602h20.423v53.324c0,25.375,8.672,35.723,29.868,35.723
		c5.381,0,10.524-0.678,15.688-2.072l0.806-0.221l-0.221-17.193l-1.468,0.504c-4.154,1.471-7.405,2.188-9.956,2.188
		c-9.956,0-13.665-5.631-13.665-20.748V519.58h24.299v-16.602H41.476v-31.826L40.004,471.66z"/>
	<path fill="#010101" d="M105.652,519.791v-16.832H86.419V606.8h21.053v-52.1c0-21.875,9.163-33.908,25.824-33.908
		c2.368,0,4.739,0.348,7.568,1.166l1.378,0.393l0.679-20.506l-9.057-0.689C121.668,501.156,111.806,507.734,105.652,519.791"/>
	<path fill="#010101" d="M255.917,500.533c-14.454,0-26.593,6.887-34.713,19.295v-16.869h-19.213v146.16h21.049v-56.662
		c7.605,10.303,18.518,15.971,32.088,15.971c26.618,0,43.791-21.801,43.791-55.566C298.918,521.566,281.652,500.533,255.917,500.533
		 M250.063,591.417c-16.662,0-27.022-14.217-27.022-37.15c0-22.059,10.913-36.313,27.812-36.313
		c16.289,0,26.008,13.498,26.008,36.129C276.86,577.128,266.593,591.417,250.063,591.417"/>
	<path fill="#589441" d="M360.45,500.533c-12.875,0-24.136,2.445-34.476,7.41l-0.663,0.293l0.241,17.982l1.636-0.916
		c9.899-5.547,19.266-8.348,27.807-8.348c15.227,0,23.973,8.74,23.973,23.975v0.885h-12.05c-34.644,0-53.726,12.564-53.726,35.342
		c0,18.301,13.754,31.066,33.482,31.066c14.511,0,25.714-5.676,33.703-16.428v15.021h19.029v-62.881
		C399.407,515.146,386.315,500.533,360.45,500.533 M378.968,562.976c0,17.908-10.766,29.451-27.423,29.451
		c-10.197,0-17.303-6.693-17.303-16.285c0-12.59,12.029-19.523,33.871-19.523h10.856V562.976z"/>
	<path fill="#589441" d="M488.86,453.382v63.689c-7.752-10.818-18.571-16.529-32.493-16.529c-25.714,0-42.997,21.195-42.997,52.715
		c0,32.484,17.541,55.17,42.612,55.17c14.879,0,26.43-6.566,34.513-19.396v17.777h19.414V453.382H488.86z M461.458,591.013
		c-16.036,0-26.029-13.996-26.029-36.518c0-22.561,10.066-37.137,25.604-37.137c17.435,0,27.828,13.877,27.828,37.137
		C488.86,576.677,478.115,591.013,461.458,591.013"/>
	<polygon fill="#589441" points="604.007,502.966 574.143,562.912 546.552,502.966 522.805,502.966 573.701,606.808 
		625.996,502.966 	"/>
	<polygon fill="#589441" points="656.67,502.966 636.721,502.966 636.721,606.808 657.79,606.808 657.79,502.966 	"/>
	<path fill="#589441" d="M682.478,529.587c0,14.635,10.046,22.328,28.56,31.377c11.682,5.729,17.799,9.102,17.799,17.209
		c0,8.271-7.531,13.645-19.156,13.645c-8.23,0-17.377-2.322-26.413-6.766l-1.524-0.754l-0.716,18.307l0.731,0.285
		c8.652,3.395,17.745,5.131,27.133,5.131c25.751,0,42.393-12.285,42.393-31.262c0-15.852-10.545-23.891-28.765-32.41
		c-13.391-6.266-18.976-9.928-18.976-16.568c0-6.338,6.227-10.422,15.872-10.422c8.688,0,17.193,1.938,25.235,5.756l1.488,0.717
		l0.957-17.941l-0.846-0.242c-8.742-2.58-17.357-3.875-25.625-3.875C697.794,501.773,682.478,512.939,682.478,529.587"/>
	<path fill="#589441" d="M816.947,500.533c-31.63,0-51.301,20.836-51.301,54.348c0,33.545,19.671,54.363,51.301,54.363
		c31.795,0,51.543-20.818,51.543-54.363C868.49,521.369,848.742,500.533,816.947,500.533 M817.168,592.031
		c-17.487,0-29.242-15.006-29.242-37.33c0-22.463,11.755-37.543,29.242-37.543c17.762,0,29.26,14.729,29.26,37.543
		C846.428,577.365,834.93,592.031,817.168,592.031"/>
	<path fill="#589441" d="M907.337,519.791v-16.832h-19.233V606.8h21.069v-52.1c0-21.875,9.146-33.908,25.788-33.908
		c2.424,0,4.759,0.348,7.584,1.166l1.378,0.393l0.683-20.506l-9.057-0.689C923.369,501.156,913.507,507.734,907.337,519.791"/>
	<polygon fill="#010101" points="180.448,502.966 160.499,502.966 160.499,606.808 181.568,606.808 181.568,502.966 	"/>
	<path fill="#010101" d="M158.479,472.535c0,6.893,5.618,12.523,12.524,12.523c6.91,0,12.511-5.631,12.511-12.523
		c0-6.91-5.602-12.529-12.511-12.529C164.097,460.005,158.479,465.625,158.479,472.535"/>
	<path fill="#A5BE91" d="M994.75,498.359c3.472,3.516,5.25,8.16,5.25,13.156c0,5.219-1.946,9.904-5.564,13.354
		c-3.729,3.582-8.395,5.477-13.26,5.477c-5.033,0-9.735-2.012-13.354-5.729c-3.472-3.615-5.402-8.203-5.402-13.102
		c0-4.996,2.021-9.854,5.713-13.518c3.528-3.441,8.01-5.307,13.043-5.307C986.393,492.691,991.148,494.646,994.75,498.359
		 M970.521,500.443c-3.03,3.047-4.646,6.959-4.646,11.072c0,4.031,1.488,7.736,4.371,10.693c2.956,3.021,6.816,4.682,10.93,4.682
		c4.023,0,7.879-1.543,10.893-4.445c2.936-2.838,4.534-6.693,4.534-10.93c0-4.113-1.505-7.898-4.335-10.77
		c-2.992-3.049-6.795-4.648-11.039-4.648C977.063,496.097,973.407,497.605,970.521,500.443 M981.56,500.798
		c5.917,0,8.909,2.086,8.909,5.963c0,2.689-1.599,4.754-4.391,5.564l4.592,9.094h-6.244l-3.876-8.203h-1.636v8.203h-5.675v-20.621
		H981.56z M978.914,509.865h2.021c2.461,0,3.691-0.885,3.691-2.691c0-2.012-1.283-2.82-4.003-2.82h-1.709V509.865z"/>
	<path fill="#686565" d="M863.216,62.541c3.472,3.519,5.274,8.147,5.274,13.143c0,5.217-1.95,9.901-5.568,13.354
		c-3.729,3.582-8.411,5.473-13.244,5.473c-5.049,0-9.752-2.012-13.37-5.73c-3.491-3.618-5.417-8.202-5.417-13.096
		c0-4.996,2.036-9.854,5.729-13.519c3.528-3.443,8.01-5.308,13.059-5.308C854.879,56.857,859.617,58.812,863.216,62.541
		 M839.006,64.608c-3.046,3.032-4.645,6.961-4.645,11.076c0,4.023,1.488,7.732,4.371,10.672c2.939,3.04,6.812,4.702,10.945,4.702
		c4.007,0,7.863-1.543,10.876-4.444c2.94-2.837,4.534-6.713,4.534-10.929c0-4.115-1.504-7.897-4.334-10.773
		c-2.977-3.048-6.812-4.647-11.039-4.647C845.544,60.264,841.873,61.771,839.006,64.608 M850.046,64.966
		c5.917,0,8.909,2.104,8.909,5.961c0,2.69-1.599,4.757-4.391,5.583l4.574,9.075h-6.243l-3.859-8.202h-1.651v8.202h-5.659V64.966
		H850.046z M847.385,74.03h2.02c2.498,0,3.708-0.881,3.708-2.69c0-1.993-1.268-2.819-4.019-2.819h-1.709V74.03z"/>
	<path fill="#FEE090" d="M290.304,73.627c59.074-7.615,226.695-12.885,180.795,229.331l52.054-4.236
		c-22.795-149.31,24.925-225.436,174.146-232.71C449.792-71.066,308.891,71.221,290.304,73.627"/>
	<path fill="#FFFFFF" d="M520.711,264.579c27.076,73.453,108.72,111.035,182.137,83.953
		c73.417-27.158,111.033-108.74,83.904-182.184C759.583,92.84,678.05,55.333,604.596,82.443
		C531.089,109.545,493.509,191.117,520.711,264.579"/>
	<path fill="#FFFFFF" d="M481.202,214.895c0,78.291-63.519,141.752-141.801,141.752c-78.356,0-141.838-63.461-141.838-141.752
		c0-78.321,63.481-141.819,141.838-141.819C417.684,73.076,481.202,136.574,481.202,214.895"/>
	<path fill="#BB2535" d="M363.557,213.48c0,14.464-11.739,26.219-26.176,26.219c-14.531,0-26.25-11.755-26.25-26.219
		c0-14.484,11.718-26.203,26.25-26.203C351.818,187.278,363.557,198.996,363.557,213.48"/>
	<path fill="#589441" d="M679.574,213.48c0,14.464-11.701,26.219-26.191,26.219c-14.495,0-26.193-11.755-26.193-26.219
		c0-14.484,11.698-26.203,26.193-26.203C667.873,187.278,679.574,198.996,679.574,213.48"/>
	<path fill="#010101" d="M780.305,121.502c7.421-31.575,31.005-63.066,31.005-63.066l-105.231-0.074
		C647.062,20.241,575.337,0,495.876,0C413.46,0,339.033,20.728,280.348,59.098l-98.78,0.074c0,0,23.29,31.134,30.874,62.504
		c-19.266,26.139-30.784,58.319-30.784,93.2c0,86.961,70.771,157.726,157.743,157.726c49.686,0,94.024-23.154,122.957-59.193
		l33.576,50.275l33.871-50.688c15.206,19.352,34.824,35.057,57.855,45.684c38.315,17.65,81.17,19.375,120.695,4.783
		c81.611-30.188,123.471-121.108,93.329-202.644C796.341,146.372,789.029,133.257,780.305,121.502 M648.717,57.931
		c-16.551,0.505-33.282,3.518-49.649,9.551c-39.525,14.576-71.009,43.735-88.644,81.995c-7.952,17.283-12.47,35.504-13.901,53.937
		c-5.826-80.57-72.333-144.481-153.961-146.106c45.164-19.278,97.054-29.811,153.315-29.811
		C552.469,27.497,603.569,37.727,648.717,57.931 M339.401,340.743c-69.431,0-125.892-56.464-125.892-125.866
		c0-69.412,56.461-125.875,125.892-125.875c69.415,0,125.875,56.463,125.875,125.875
		C465.276,284.279,408.815,340.743,339.401,340.743 M697.336,333.586c-31.536,11.648-65.755,10.295-96.338-3.811
		c-30.527-14.085-53.727-39.178-65.354-70.688v-0.018c-11.645-31.539-10.341-65.739,3.712-96.304
		c14.07-30.519,39.195-53.752,70.735-65.389c65.166-24.044,137.663,9.367,161.726,74.48
		C795.842,236.936,762.433,309.5,697.336,333.586"/>
	<path fill="#010101" d="M337.455,135.637c-42.98,0-77.972,34.926-77.972,77.843c0,42.962,34.992,77.923,77.972,77.923
		c42.891,0,77.788-34.96,77.788-77.923C415.243,170.563,380.346,135.637,337.455,135.637 M337.455,264.561
		c-28.212,0-51.154-22.924-51.154-51.081c0-28.159,22.942-51.046,51.154-51.046c28.102,0,50.954,22.887,50.954,51.046
		C388.408,241.637,365.557,264.561,337.455,264.561"/>
	<path fill="#010101" d="M653.383,135.637c-42.944,0-77.898,34.926-77.898,77.843c0,42.962,34.954,77.923,77.898,77.923
		c42.923,0,77.861-34.96,77.861-77.923C731.244,170.563,696.306,135.637,653.383,135.637 M653.383,264.561
		c-28.176,0-51.081-22.924-51.081-51.081c0-28.159,22.905-51.046,51.081-51.046c28.139,0,51.027,22.887,51.027,51.046
		C704.41,241.637,681.521,264.561,653.383,264.561"/>
</g>
</svg>
