<?xml version="1.0" encoding="utf-8"?>
<!-- Generator: Adobe Illustrator 22.1.0, SVG Export Plug-In . SVG Version: 6.00 Build 0)  -->
<svg version="1.1" id="Layer_1" xmlns="http://www.w3.org/2000/svg" xmlns:xlink="http://www.w3.org/1999/xlink" x="0px" y="0px"
	 viewBox="0 0 90 90" style="enable-background:new 0 0 90 90;" xml:space="preserve">
<style type="text/css">
	.st0{fill:#D32323;}
	.st1{fill:#FFFFFF;}
</style>
<g id="background">
	<path class="st0" d="M82.6,90H7.4C3.3,90,0,86.7,0,82.6V7.4C0,3.3,3.3,0,7.4,0h75.3c4,0,7.3,3.3,7.3,7.4v75.3
		C90,86.7,86.7,90,82.6,90z"/>
</g>
<g id="logos">
	<g>
		<path class="st1" d="M23.6,42.9L38.2,50c2.8,1.4,2.4,5.5-0.7,6.3l-15.8,3.9c-2,0.5-3.9-0.9-4.1-2.9c-0.5-4.3,0-8.6,1.3-12.5
			C19.6,42.9,21.8,42,23.6,42.9z"/>
		<path class="st1" d="M29.4,73l10.9-12.1c2.1-2.3,6-0.8,5.8,2.4l-0.6,16.3c-0.1,2-1.9,3.5-3.9,3.2C37.5,82,33.5,80.4,30,78
			C28.4,76.9,28.1,74.5,29.4,73z"/>
		<path class="st1" d="M55.3,56.9l15.5,5c1.9,0.6,2.9,2.8,2,4.6c-1.8,3.8-4.5,7.2-7.7,9.9c-1.6,1.3-3.9,0.9-5-0.8l-8.6-13.8
			C49.7,59.2,52.3,56,55.3,56.9z"/>
		<path class="st1" d="M71,47l-15.6,4.5c-3,0.9-5.5-2.5-3.7-5.1l9.1-13.5c1.1-1.7,3.5-2,5-0.6c3.1,2.8,5.7,6.2,7.4,10.2
			C74,44.3,73,46.5,71,47z"/>
		<path class="st1" d="M34.4,9.1c-2.8,0.8-5.5,1.8-8,3c-1.8,0.8-2.4,3-1.5,4.7l15.3,26.5c1.7,3,6.3,1.8,6.3-1.7V11
			c0-2-1.7-3.5-3.6-3.3C40.1,7.8,37.3,8.3,34.4,9.1z"/>
	</g>
</g>
</svg>
